# xmcd CD database file
#
# Track frame offsets:
#	150
#	28101
#	74367
#	110684
#	169037
#	217072
#	230718
#
# Disc length: 3400 seconds
#
# Revision: 0
# Processed by: cddbd v1.5.2PL0 Copyright (c) Steve Scherf et al.
# Submitted via: CDex 1.70beta2
#
DISCID=670d4607
DTITLE=Motif - Facienda [CD2]
DYEAR=2010
DGENRE=Jazz
TTITLE0=Paddy Whack
TTITLE1=Krakatau
TTITLE2=I Distinctly Heard The Sound Of A Mexican Rhythm Combo
TTITLE3=Toobaii
TTITLE4=Korean Barbeque Smokeout
TTITLE5=Immunofluoresence
TTITLE6=The Ultimate Complexity
EXTD=YEAR: 2010
EXTT0=
EXTT1=
EXTT2=
EXTT3=
EXTT4=
EXTT5=
EXTT6=
PLAYORDER=
